<svg height="1061.2874pt" preserveAspectRatio="xMidYMid meet" viewBox="0 0 481.65097 1061.2874" width="481.65097pt" xmlns="http://www.w3.org/2000/svg"><g transform="matrix(.1 0 0 -.1 -232 1149.4498)"><path d="m3830 11490c-36-4-108-8-161-9-88-1-99-3-145-32-58-37-304-286-375-379-54-71-155-263-183-347-20-60-16-94 20-164 20-40 22-56 17-116-6-71 6-111 46-157 15-18 14-18-29-11-25 4-74 18-109 31s-67 22-70 19c-10-11 20-100 47-139 43-62 146-122 278-161 6-2 9-17 6-34-3-25-8-30-22-26-10 3-29 1-42-5-17-8-41-9-77-2-60 11-67 6-122-79-27-43-29-50-20-90 20-83 16-96-31-111-46-16-68-44-68-90 0-16-4-28-10-28-5 0-10-7-10-15s-8-19-19-24c-35-19-56-64-57-121-3-132-19-203-57-260-46-67-65-124-49-143 8-10 4-24-18-58-33-48-37-76-16-104 12-16 9-22-25-55-49-46-49-60-1-60 20 0 46-7 57-15 18-15 18-16 2-45-18-30-105-228-137-311-20-52-19-52 68-107 33-20 42-32 38-47-2-11-23-83-47-160-35-117-42-154-43-230-1-82 2-96 32-160 18-38 50-92 71-120 21-27 41-66 44-85 4-19 22-73 40-120 40-102 47-106 174-113l93-4 31 38c21 26 40 39 56 39 36 0 84 23 159 78 38 27 89 60 113 72 59 30 143 110 190 182 28 44 40 55 45 43 4-11 2-14-7-10-6 4-3-1 8-10s19-21 18-26c-2-5 6-23 17-41 27-44 25-96-5-214-33-126-31-144 21-169l41-20-19-30c-23-38-23-69 0-109 22-37 22-40-6-93s-28-61 3-93l26-27-98-74c-109-82-190-161-204-197-5-13-9-38-9-55 0-25-14-48-60-102-142-165-210-295-318-600-68-191-123-326-175-431-46-93-86-207-107-308-11-53-10-61 4-72 15-11 13-27-29-188-25-97-45-194-45-215s9-64 20-96c22-64 105-205 121-205 6 0 24-30 41-67 17-38 34-70 38-73 7-4 180-368 180-378 0-2-6 0-12 4-7 4-3-4 9-17 30-34 235-438 228-450-4-5 0-12 9-15 8-3 22-23 30-45 15-38 15-43-15-147-42-145-63-176-433-625-37-46-77-82-109-99-68-38-108-69-205-162-84-81-152-164-152-186 0-8 9-11 24-8l24 5-19-36c-37-70-11-85 40-24 17 21 31 35 31 32s-11-39-25-79c-39-114-21-114 74 0 24 29 27 15 6-26-10-20-11-32-3-41 16-19 23-16 61 23l35 37 44-13 45-13-24-36c-13-19-22-39-20-45 7-22 44-16 86 14 38 28 46 30 73 21 67-24 251-5 283 28 8 9 23 26 33 38l17 23 78-25c43-14 85-25 93-25s33-9 54-20c25-13 40-16 40-9 0 8 12 9 38 4 20-4 46-7 56-7 10 1 32-6 47-14 33-17 43-18 34-4-10 17 9 11 66-19 65-35 271-116 469-183 80-27 159-60 177-74 17-13 35-24 40-24 4 0-1 7-11 15-28 21-25 20 153-30 285-81 606-155 1036-240 127-25 257-53 290-61 73-19 198-73 204-87 2-6 17-22 32-36 23-21 28-36 31-81 4-70 25-77 77-26 36 36 39 36 93 30l56-7 21 41c14 28 24 74 30 147 5 59 12 109 15 113 3 3 6-2 6-11 0-8 4-17 9-19s4-46-2-101c-12-110-9-124 41-147 26-12 35-25 48-73 21-74 43-74 63 1 12 43 18 52 37 52 36 0 54 11 54 31 0 33 37 5 58-45 11-24 25-47 31-50 13-8 31 33 31 70 0 19 8 28 30 35 17 6 30 15 30 20s8 9 19 9c13 0 24-14 36-45 9-26 22-44 29-42 6 2 15 24 19 48 7 37 14 48 45 64 27 15 38 28 42 50 4 24 11 31 33 33 25 3 27 0 27-30 0-18 4-39 9-47 16-25 31-1 31 51 0 35 6 59 21 80 19 25 20 37 14 96-3 37-13 93-21 124-13 53-13 65 7 155 16 73 19 112 14 158-13 111-9 169 25 309 32 133 32 139 16 167-13 23-14 32-5 47 13 20 11 30-51 317-10 50-25 94-33 99-10 7-7 20 17 66 29 55 30 60 18 106-6 27-21 185-32 351-24 370-59 641-97 752-41 121-115 247-296 504-48 68-79 122-82 145-6 32-53 234-71 298-5 18 3 26 44 49 70 38 77 55 67 172-4 54-9 132-10 173-3 100-84 361-259 833-36 97-75 214-86 260-38 148-133 320-234 421-48 48-56 61-56 94 0 68-78 165-155 193l-35 13 37 20c31 18 40 31 54 78 9 32 42 108 73 169 47 93 55 117 50 145-4 20 1 63 11 105 16 64 25 80 79 139 38 41 67 83 74 108 7 22 27 73 46 113 18 41 40 99 49 130 9 30 26 64 38 75 23 21 68 104 75 137 2 11 7 23 12 26s41 47 81 96c69 85 119 168 136 225 4 14 16 35 27 47 17 19 20 36 21 125 2 239-77 472-203 598-93 93-212 199-240 214-48 25-70 41-69 51 3 24-2 35-15 35-20 0-123 47-131 60-18 29-233 100-304 100h-25l22 16 22 15-20 40c-12 22-76 103-143 181-207 240-247 289-247 302 0 7-12 23-26 37-40 37-150 199-163 241-19 56-89 145-154 194-33 24-63 44-68 44s-9 51-10 113c-1 141-6 161-42 165-21 3-34-4-55-27-14-17-30-31-34-31s-19 20-33 45c-61 102-204 201-326 224-74 13-457 21-539 11zm297-22 78-12-48-14c-55-15-60-26-6-13 46 12 162 19 147 9-9-5-5-8 10-8 14 0 21 4 16 11-15 26 125-22 196-67 19-12 46-33 58-47l24-25-44 10c-23 6-101 11-173 11-147 1-264-19-358-60-50-22-58-31-69-64-7-24-17-39-27-39-37 0-133-70-232-169-162-163-223-238-224-275-2-41-85-212-85-174 0 15 5 39 10 54 8 20 8 29-1 34-15 10 2 89 36 166 14 31 23 59 21 61-9 10-66-150-72-203-4-33-13-84-20-114-8-30-14-72-14-93 0-26-4-37-12-35-9 3-12 29-12 84l1 79-7-70c-3-38-7-60-8-47-1 12-6 22-10 22s-26 42-47 93c-39 90-40 95-39 207 0 97 4 129 28 205 30 97 71 185 118 253 17 24 28 46 25 48-8 8-95-138-122-203-49-123-67-217-63-332 3-74 9-116 21-138 22-41 58-133 52-133-13 0-58 97-75 165-24 94-26 242-5 330 18 77 18 91-2 40-9-25-17-88-20-165-7-175 16-265 97-385 15-22 30-52 34-67 11-45-16-34-74 28-84 93-146 234-156 359-6 64-4 76 26 140 31 68 112 199 130 210 5 3 2-11-6-31s-13-38-11-41c3-2 10 10 16 28 6 17 26 55 45 83 36 53 126 147 126 131 0-5 21 11 48 37 26 25 62 53 80 62 17 9 32 21 32 27s-17 1-37-11c-23-13-30-15-18-5 51 43 95 53 239 54 77 1 142 4 145 6 9 9 161 5 238-7zm399-168c32-6 71-15 85-21 33-13 90-110 78-132-8-13-13-13-49 4-66 32-199 59-315 64-109 4-109 4-25-5 47-4 114-13 150-20 73-13 220-59 220-69 0-3-15-24-33-45-30-35-35-38-58-27l-24 12 22-17 22-16-26-39c-14-21-28-39-31-39s-44 12-90 26-86 23-88 21 31-14 73-27c43-12 82-26 87-31 8-7-49-109-61-109-2 0-32 20-66 44-63 44-146 90-152 84-2-2 25-18 60-37 85-44 151-102 142-125-6-16-11-15-49 9-58 35-179 97-183 93-2-2 35-23 82-48 85-44 156-101 135-108-6-2-38 11-71 27-33 17-64 31-68 31-4-1 27-19 69-40 77-39 77-40 71-72-7-41-61-149-64-128 0 8-1 29 0 45 1 26-1 27-8 10-5-11-10-33-11-50l-2-30-11 28c-6 15-14 27-18 27s-5 10-2 23c3 15 2 18-4 9-7-8-16 4-32 43-19 46-31 59-72 82-41 24-49 32-49 58 0 16-1 39-2 50s2 31 6 44c5 15 5 21-2 17-10-6-62 114-62 141 0 8 11 11 33 8 25-3 24-2-8 6-33 9-45 20-70 61-16 28-38 59-47 71-10 11-18 23-18 27 0 12 91 47 155 58 33 7 69 13 80 16 43 8 244 5 301-4zm300-162c-4-68-11-143-16-168-15-73-11-162 10-272 11-57 20-119 20-138 0-32-30-154-51-208-11-29-66-62-104-62-35 0-75 24-75 46 0 8-4 14-9 14-17 0-23-20-11-35 24-28 1-15-29 18-17 17-31 26-31 19 0-19 100-116 141-137 19-10 44-27 56-38 13-11 26-18 29-14 9 8-38 67-66 83l-25 13 33 1c43 0 95 25 118 55l18 23 56-43c90-69 328-295 372-354l26-35-46-40c-147-127-297-291-401-440-22-33-41-57-41-54 0 2 11 71 25 152s25 162 24 179c0 18-9-15-19-73-41-227-68-319-121-406-54-91-124-235-159-332-14-38-29-64-41-67-11-4-44-38-74-76-55-68-86-94-99-82-3 3-6 1-6-5 0-29 38-7 100 58 37 39 72 70 77 70 18 0-4-93-40-165-19-38-42-91-52-117-10-27-21-48-24-48-4 0-32 16-62 35l-56 35 4 72c3 73 32 255 57 358l13 55 7-50c4-27 9-54 11-60 7-21 4 62-4 104-5 24-5 55-1 70 7 26 7 25 13-9 4-19 8-46 10-60 3-14 5-5 6 20 2 37 4 41 11 23 5-13 5-35-1-55s-7-80-3-153c7-109 9-116 17-77 7 28 14 41 23 38 7-3 18 2 25 10 21 26-11 187-57 282l-26 53 63 77c80 98 189 262 217 330 23 53 145 276 164 299 6 7 12 37 15 67 4 49 2 60-26 100-18 26-27 47-21 51 5 3 10 10 10 14 0 11-57 68-88 88-43 29-35 3 11-38 26-22 45-45 42-49-3-5 1-26 10-46 8-20 18-70 21-110 6-80 6-79-84-226-23-37-53-96-68-130-25-62-97-183-119-203-6-5-46-54-89-107-43-54-81-98-85-98-3 0-12-13-18-28-16-36-112-144-123-137-4 2-33-23-65-56-53-55-58-58-71-42-13 17-13 17-14-1 0-18-3-17-29 8-16 16-34 25-39 22-6-4-13-2-17 4-3 5-24 14-45 20-22 6-40 15-40 20 0 6-6 10-13 10-12 0-67 46-67 56 0 3 16 34 35 68 19 35 35 71 35 80s5 14 10 11c15-9 12 16-9 85-18 57-18 62-3 66 10 3 31 12 49 21l32 16 56-52c31-28 60-51 65-51s15 7 24 15c8 8 20 15 26 15s14 10 19 23 51 56 103 95c51 39 108 86 127 105 18 20 39 33 46 31 14-6 84 69 126 136 39 60 72 149 61 164-5 6-9 18-9 26 0 17-52 100-63 100-3 0-17 23-30 50-22 48-40 52-40 10 0-12 2-13 9-1 7 10 14 2 29-33 12-25 26-46 32-46 12 0 24-28 34-80l6-35-40 43c-21 23-43 42-47 42s7-15 24-32c34-36 63-88 63-113 0-48-108-190-150-199-18-3-56-31-97-73-76-76-99-96-161-136-23-15-42-34-42-43 0-11-6-14-22-9-17 6-20 4-15-9s0-13-36 5c-23 12-52 30-64 41l-21 20 36 31c56 48 82 77 81 90 0 9-2 9-6 0-2-7-13-13-24-13-10 0-35-18-55-40-49-54-164-111-231-113-28-1-49-6-46-10 3-5 31-6 62-2l57 7 12-39c7-23 8-39 2-41-5-2-7-17-3-33 3-16 3-29-1-29-3 0-58 38-121 85-112 83-115 86-100 108 11 16 33 25 83 33 130 22 143 29 192 95 56 75 96 112 161 144 75 38 254 95 299 95 46 0 53 15 12 25-17 3-44-1-67-11-38-15-39-15-56 7-17 23-31 70-23 78 6 6 176-30 195-42 10-6 25-28 35-49 9-21 21-38 26-38 14 0-41 99-62 110-11 6-61 16-112 23l-92 12-22 73c-25 80-39 103-58 96-17-6-43-63-60-129l-12-50-39 4c-22 1-62 11-90 21-91 34-119 30-145-17l-21-38 5 35c3 21-4 8-19-35-13-38-24-78-24-87-1-32 14-19 33 30 30 73 45 91 86 103 34 10 43 9 73-10 32-19 34-24 28-54-5-17-17-54-29-80s-18-46-14-43c8 5 45 84 56 119 4 12 16 17 46 17h40v-74c0-43-5-78-11-82-6-3-29 2-51 12-39 18-41 18-55-1-8-12-13-37-11-59 3-53-19-68-58-37l-29 22-18-22c-18-22-18-48-2-91 11-29-16-21-52 14-37 36-47 32-46-17 1-37-5-38-44-2-27 24-43 15-43-23 0-39-12-44-53-20-31 18-34 24-28 53 7 31 9 32 58 32 29 0 55 4 59 8s18 7 30 7c17 0 29 11 43 38 11 22 16 44 12 51-6 10-10 9-15-4-3-9-10-13-16-10-5 3-10 1-10-4 0-6-7-11-15-11s-15-7-15-15c0-18-55-21-65-4-4 6-14 8-22 5-8-4-11-1-8 5 4 6-1 9-11 7-17-3-19 3-17 42 2 25 4 77 6 115 5 105 6 108 30 138 19 22 44 33 138 56 128 33 266 84 289 108 18 19 20 19-85-26-85-36-244-83-256-75-15 9-10 34 5 28 8-3 43 24 85 65 39 38 100 89 136 113 36 23 65 46 65 51 0 4-17 6-39 4-40-4-105-42-96-57 3-4-3-14-13-21-15-13-16-12-3 4 11 14 11 17 0 17-8 0 0 11 16 25 26 21 26 25 0 25-3 0-5-3-4-6 0-3-29-37-66-75-36-38-64-73-60-79 3-5 1-10-5-10s-9-4-5-9c3-5 1-12-4-15-16-10-23 33-16 97 7 55 12 66 46 99 21 20 73 53 116 73 112 54 152 82 170 120l16 34-58 53c-32 29-65 57-74 61-9 5-5-1 9-13s25-27 25-34c1-6 6-10 12-9 28 6 53-79 34-116-5-9-52-39-103-65s-107-59-125-72c-17-13-34-24-37-24-4 0-15 15-26 33-11 17-20 27-20 21s9-23 21-38c18-23 18-30-1-28-3 0-6-7-7-16-6-56-38-144-57-154-12-6-24-15-27-21-10-14-68 8-104 41l-30 27 24-27c34-38 15-35-29 5l-35 32 30-34c17-18 49-42 73-53 37-17 41-21 32-39-14-25-34-24-73 2l-32 21 33-30c32-28 32-29 13-46-18-16-32-17-119-11-69 5-102 4-106-4-13-20-43-12-61 16-16 24-17 34-7 80 12 58 4 103-28 143l-19 25 15-64c8-35 13-66 11-68-10-9-37 11-37 27 0 21-29 91-30 71 0-25-10-5-19 40l-9 44-1-40c0-22 8-59 19-83l20-43-23 7c-33 10-117 54-149 77-33 24-75 85-84 121l-6 26 45-20c24-11 79-25 121-31l76-11 1-37c1-20 3-28 6-18 2 9 11 17 20 17 12 0 14 7 9 28-4 15-9 59-13 97l-6 70 22-19c11-11 24-16 27-13 4 3 26-5 49-18 23-14 48-25 56-25 21 1-30 40-52 40-10 0-21 5-24 10-11 17 20 11 80-16 67-31 70-29 79 58 4 33 11 69 16 81 6 15 7 7 3-25-7-59 3-62 17-5 6 23 20 66 32 96 21 52 21 53 34 30 7-13 13-18 14-11 0 6 11 22 24 33 15 13 22 27 19 37-4 10-2 13 5 8 6-3 14-1 18 5 5 8 3 9-6 4-8-5-11-3-8 6 3 8 9 14 15 14s43 35 83 78c40 42 86 87 104 99 17 11 0-11-39-50-38-40-66-72-63-72 4 0 42 31 85 70 43 38 90 74 105 79 26 9 28 8 28-18 0-51 13-42 31 21 9 35 31 99 48 143s36 100 42 124l10 43 25-33c70-93 126-246 117-320-3-27-10-52-14-55-4-2-6-10-3-17 7-18-35-40-91-48l-50-6 50-2c35-1 60 5 84 19 33 21 34 21 70 2 21-11 51-41 72-73 69-103 110-179 104-189-12-19 15-40 43-33 17 4 23 2 18-6-4-6-2-11 5-11s10-3 6-6c-10-10 13-61 27-61 9 0 12 7 8 16-3 9-2 13 3 9 4-4 12-25 16-45 6-31 8-25 6 29-2 41-8 73-16 80-11 11-12 10-6-1 5-9 4-12-2-8s-9 24-7 44c27 309 25 302 110 428 32 49 80 120 105 158 26 39 54 74 63 79s16 15 16 23c0 20 59 85 77 85 14 0 15-16 9-122zm-886 4c0-15-40-125-61-169-13-28-30-45-50-52-21-7-28-7-23 0 29 48-158-111-209-176-23-30-43-52-46-50-2 3 2 11 9 20s10 18 7 21c-5 6-52-62-64-93-5-12-3-14 7-8 9 5 11 4 6-4-4-6-11-9-16-6s-12-4-15-16c-4-11-9-18-12-16-6 7 32 81 69 135 17 24 28 46 25 49-3 2-17-13-32-35-31-46-54-61-52-32 1 11 3 17 6 15 6-7 31 15 31 27 0 5-6 6-12 2-10-5-10-3 0 7 7 8 17 14 21 14 12 0 111 111 105 118-10 10 162 175 225 216 65 41 81 48 81 33zm979-212c60-48 115-126 135-192 8-27 12-48 9-48-2 0-35 19-71 43-37 24-86 54-109 67-29 16-43 30-43 44 0 46 13 126 20 126 5 0 31-18 59-40zm-1807-334c17-39 51-99 75-134l45-64-33 18c-51 26-159 134-180 179-25 54-24 83 8 162l27 68 14-79c7-44 27-111 44-150zm1838 150c164-105 175-121 30-47-99 52-136 76-138 91-2 11-1 20 2 20s51-29 106-64zm160-135c32-21 94-83 152-151 54-63 117-137 141-165 23-27 35-45 27-40s-37 23-65 40c-59 38-95 57-95 52 0-2 39-28 88-57 77-47 240-195 228-207-2-2-41 23-87 55-128 92-459 286-459 269 0-2 46-30 103-62 152-87 431-276 464-317 14-16 34-98 24-98-31 0-85 27-117 57-61 57-173 126-356 219-93 47-172 92-175 100-4 11-8 12-13 4s-24-3-64 17c-54 26-57 30-52 58 20 118 17 228-10 354-5 22 3 19 103-34 59-32 133-74 163-94zm-696-52c-24-55-30-41-8 23 12 34 19 46 22 34 2-10-4-36-14-57zm-1333-105c33-33 36-39 28-67-5-18-9-49-9-69 0-46-19-43-50 7-15 24-20 50-20 99 0 36 3 66 7 66s24-16 44-36zm1891-158c6 4 9 3 6-2s11-22 31-39c20-16 30-22 22-12s-9 17-3 17 13-9 17-19c4-14 13-18 30-15 26 5 46-12 96-80 40-53 37-70-3-21-18 22-46 53-61 70-16 16-3-2 29-42 31-40 61-70 66-67 4 3 5-1 2-9-6-18 12-32 21-17 4 6-12 38-35 72-57 85-47 89 24 8 25-29 124-199 118-205-11-11-20-4-25 18-4 12-20 41-38 65-22 31-35 40-43 33-14-12-95 66-140 134-23 35-32 39-27 12 1-5-30 17-69 49-71 57-86 73-50 54 11-6 26-8 32-4zm-1159-127c-6-6-9-18-6-25 3-8 0-14-6-14s-14 0-18-1c-13-1-33-21-33-31 0-6 7-5 15 2 24 20 17 6-9-19-15-14-26-19-30-12-6 10 79 111 92 111 3 0 1-5-5-11zm1461-61c3-16 10-27 16-23 7 4 6 13-1 27-11 20-10 20 27-2 106-64 201-136 192-146-12-11-87 22-111 49l-29 32 22-32 21-33h-21c-14 0-31 16-52 50-18 29-35 47-40 42s-6-17-2-26c4-10 10-13 13-8s18-10 33-34c19-31 23-44 13-44-7 0-17 9-20 21-4 11-9 18-13 15-3-4-25 27-49 68s-47 78-53 81c-5 3-10 11-10 16 0 23 58-26 64-53zm-1604-92c0-29-4-36-32-45-18-7-47-26-65-43-18-18-33-27-33-21 0 7 5 15 11 18 6 4 8 14 5 22s-2 12 3 9c4-3 17 4 27 15 11 12 30 26 44 31 18 7 21 11 11 17-16 10-6 31 15 31 9 0 14-11 14-34zm-50 0c0-3-14-15-32-27-29-21-31-14-5 19 9 11 37 17 37 8zm570-116c12-47 29-97 36-113 12-22 12-28 2-32-32-12-131-45-135-45-1 0-3 26-3 57 0 62 24 171 47 217 19 36 22 30 53-84zm-1101 34c2-2-4-10-13-19-29-30-17-29 14 0 16 16 33 26 36 22 4-4 12-3 18 2 7 6 24 0 46-15 19-13 29-24 22-24-19 0-44-47-37-69 3-12 25-29 48-39l42-19-33-17c-49-26-128-8-164 38-17 21-17 21-12 0 3-11 20-29 37-39 19-12 26-20 18-23-7-2-16 0-20 5-8 12-50 11-48-1s-58-35-93-35c-24-1-25 2-27 66-2 65 10 111 42 160 13 20 21 21 67 16 29-3 55-7 57-9zm2368 1c21-8 118-33 216-55s197-48 220-59c47-21 109-81 90-88-42-15-147-100-228-184-148-155-193-222-288-429-96-209-132-315-149-444-11-84-15-93-77-185-69-104-106-178-155-312l-31-87-63 39c-35 21-114 58-175 84-159 64-252 114-299 157-23 21-46 38-53 38-16 0-35 21-35 40 0 8 25 69 56 135 30 66 57 136 59 155 14 114 39 195 100 325 49 105 109 207 121 206 5 0 12 10 15 23 23 84 261 374 429 522 163 142 174 148 247 119zm-2072-44c5 0-8-10-30-21-36-18-40-19-57-3-10 9-18 20-18 24 0 7 55 7 105 0zm159-34c11-43 7-105-9-111-8-3-22-21-31-39-15-32-15-38 0-85 10-28 24-56 32-62 18-16 19-70 1-70-15 0-117 73-128 92-4 7 5 23 21 38s32 40 36 56 12 32 18 36 11 28 11 54c1 31 7 51 18 59 18 13 23 45 7 45-5 0-10 4-10 10 0 18 28-1 34-23zm-321-2c-3-9-8-14-10-11-3 3-2 9 2 15 9 16 15 13 8-4zm238-31c14-30 18-55 14-72l-7-27-16 32c-15 29-65 74-96 87-19 8 17 26 52 26 30 0 35-5 53-46zm-141-9 23-25h-26c-22 0-27 5-27 25 0 14 1 25 3 25s14-11 27-25zm84-25c20-22 36-50 35-63 0-22 0-22-9-1-4 11-23 33-42 49-41 34-54 55-35 55 8 0 31-18 51-40zm-23-39c16-16 29-35 29-43-1-7-7-2-14 11s-29 32-47 42c-23 12-28 18-16 19 10 0 32-13 48-29zm-41-29c0-14 2-15 9-3 8 12 12 10 22-11 14-31 4-72-11-48-9 13-10 13-11 0 0-10-3-8-9 5s-9 15-9 5c-1-8-9 1-19 20-16 31-16 37-4 47 18 15 32 8 32-15zm-53-54c24-27 72-51 89-44 7 3 20 20 28 38 13 29 14 30 15 10 3-68-68-86-127-33-35 33-56 76-45 94 4 7 10 0 14-17 4-15 16-37 26-48zm2840 14c21-16 51-44 67-61 17-17 36-31 43-31 19 0 115-74 182-140 74-73 151-231 151-311 0-17 3-28 8-26 14 9 5-247-12-323-33-149-99-250-323-496-46-51-83-97-83-102 0-19 20-24 37-11 37 31-10-98-74-204-65-109-193-279-283-377-103-112-200-244-200-272 0-25-51-116-137-243-62-91-71-100-103-103-47-5-101 13-133 42-15 14-27 22-27 19s-11 2-25 11c-13 9-89 36-169 61s-180 59-222 76c-43 16-94 32-114 34-35 3-133 47-173 77-15 11-18 29-19 98 0 47 7 114 15 150 15 63 76 234 82 228 1-2-6-43-16-93-21-102-23-135-9-135 6 0 10 24 10 53 0 28 6 78 14 110s12 66 10 75c-6 24 86 164 127 194 38 28 124 64 114 48-9-14 6-13 46 4 30 12 41 12 88-3 71-23 82-49 77-180-2-53-2-73 1-46 6 77 13 86 29 35 18-57 19-66 10-115-8-41 7-41 17 0 3 11 5 0 6-24 1-37 3-42 16-31 13 10 15 9 15-9 0-29 14-26 28 5 9 18 9 23 1 18-7-4-9 0-5 12 14 47 23 103 16 99-5-3-11-24-15-48-7-39-8-41-17-17-5 14-7 45-4 70 3 27 2 35-2 20-14-45-24-3-19 73 4 48 3 58-2 30-10-57-17-61-31-18-13 39-8 154 8 196 6 15 8 35 6 46-3 10 6 50 21 89 58 153 169 324 269 409 44 38 53 51 44 62-6 7-9 16-6 19 3 2 13-8 23-23s48-68 86-118l68-90 7-85c4-51 1-123-6-180-12-95-65-264-79-255-9 5-34-45-27-52 2-3-2-23-10-46-20-58-13-46 49 75 70 136 92 242 85 414-4 113-4 115 14 92 10-12 43-68 74-123 70-126 126-217 130-212 2 2-9 28-26 58-34 61-36 71-15 63 8-3 31-35 52-70 20-35 41-64 46-64 4 0-4 19-18 43-47 77-111 210-175 365-35 83-65 150-67 148-3-2 25-75 61-161s66-159 66-162-21 21-46 52c-43 52-118 198-159 308-10 26-20 46-22 43-2-2 8-32 22-67 15-35 29-71 32-79s-24 29-61 84c-63 92-69 105-93 214-24 107-25 117-10 146 8 17 36 78 62 136 62 139 115 211 259 356 183 184 256 215 343 146zm-2594-13c-6-21-11-28-15-19-6 17 9 66 18 58 3-3 1-21-3-39zm-336 19c-20-47-99-225-125-280-17-38-35-68-40-68s-17 9-27 20-29 20-41 20c-29 0-30-3 57 178l69 142h56c41 0 55-3 51-12zm-162-30c-33-77-56-118-65-113-12 8-100-15-100-26s2-11 58 0c47 9 47 10 16-65-14-34-52-52-119-56-16-1-2-4 32-7 85-8 73-22-60-70-117-42-118-42-82 29 7 14 13 42 12 63-1 28 6 44 30 69 17 18 38 58 48 88s22 60 29 67c15 16 125 43 131 33 3-5 22-3 43 5 20 7 38 14 39 14 1 1-4-14-12-31zm955 12c13-9 11-13-9-30-28-24-36-20-27 15 7 27 13 30 36 15zm-662-86c59-48 114-93 122-100 29-26 176-141 288-224 62-46 111-87 110-90-18-42-122-230-128-230-11 0-139 97-190 144-78 72-88 78-156 92-37 8-87 23-113 35-25 11-47 20-49 19-5-1-118 59-136 72-17 14-16 20 37 144 81 188 97 224 103 224 3 0 53-39 112-86zm230-9c-3-3-9 2-12 12-6 14-5 15 5 6 7-7 10-15 7-18zm-160-6c12-19 11-19-7-10-26 14-36 31-19 31 7 0 19-9 26-21zm473 5c17-15 17-18 2-40-20-31-33-22-33 22 0 38 5 41 31 18zm-105-71c18-24 17-33-1-33-8 0-15 4-15 9s-3 16-6 25c-8 21 6 20 22-1zm-76-28c10-13 9-15-9-15-12 0-21 6-21 15 0 8 4 15 9 15s14-7 21-15zm-87-55c20-18-13-18-34 1l-24 20 25-7c14-3 29-10 33-14zm-648-102c-7-23-7-23 8-3s16 19 59-13c71-54 211-119 284-131 86-15 107-27 193-106 75-68 193-159 274-210 26-16 46-32 45-36-2-5-19-18-38-31s-48-42-65-65c-21-30-36-41-49-38-12 2-15 0-9-6s1-38-14-92c-19-62-25-109-26-189-1-60-4-108-5-108-2 0-14 8-27 18-12 10-42 24-66 31-92 27-126 48-204 122-44 41-110 92-147 112-37 21-70 42-73 47-4 6-10 8-15 5-10-6-236 48-290 70-53 21-90 28-145 27-27 0-42 2-33 4 29 9 50 52 43 86l-7 31 47-6c26-4 56-7 67-7 16 0 17-3 8-22l-11-23 17 23c21 28 33 28 194-4 72-14 133-24 134-23 2 2 6 17 10 33 6 24 4 27-9 22-9-3-71 13-138 35l-122 42-80-13c-44-7-87-16-97-21-19-10-28 7-28 51 0 36 10 61 21 54 5-3 6 3 2 12-4 12-3 15 5 10 7-4 12-1 12 7 0 9 29 21 88 35 125 31 138 30 223-11 42-20 89-39 105-43s37-13 46-21c20-18 52-13 56 8 2 13-11 19-60 28-93 18-158 40-200 68l-37 25-98-21c-54-11-120-32-146-46-27-14-51-25-53-25s1 12 7 28c15 38 69 122 80 122 5 0 6-18 3-42-5-29-4-39 4-34 6 4 9 12 6 20-3 7-1 24 5 37 8 22 19 26 87 37 44 7 87 16 97 19 16 4 18 1 13-19-7-22-6-22 6-3 7 12 21 19 31 17s24 2 32 8c16 14 24 10 143-67 60-38 90-52 104-47 31 9 11 23-149 98-155 74-137 72-291 39-40-8-76-13-79-9-3 3 0 19 7 36 14 33 27 38 165 70 44 9 81 18 83 19 2 0 0-9-3-21zm1399-216c-26-54-91-333-111-485l-8-58-42 33c-37 28-43 38-44 73l-2 40-6-35-6-34-90 82c-64 58-100 84-125 88-19 4-44 16-54 26-18 20-18 22-2 74 9 30 21 54 25 54 5 0 26-12 47-27s63-39 93-55l55-28 49 55c27 30 55 55 63 55s14 4 14 8c0 13 72 82 85 82 7 0 24 18 39 40 31 47 41 52 20 12zm-503-177c-9-24-19-47-23-50-5-5-78 32-78 41 0 2 12 28 27 59l27 55 32-31 31-30zm-1216 1c0-58-2-66-23-76-51-23-56 21-11 92 17 26 32 48 33 48 0 0 1-29 1-64zm1786-18c-8-30-9-28-9 27 0 50 1 56 9 33 7-17 7-38 0-60zm1036-45c5-51 5-93 1-93s-8-8-8-17c0-33-18 2-35 65-15 59-15 67 1 114 21 65 29 51 41-69zm-2650 1c-3-3-12-4-19-1-8 3-5 6 6 6 11 1 17-2 13-5zm2625-135c13-8-15-59-31-59s-32 68-26 107c13 78 18 80 32 18 7-32 19-62 25-66zm-985 89c-3-8-6-5-6 6-1 11 2 17 5 13 3-3 4-12 1-19zm-1807-22c0-3-4-8-10-11-5-3-10-1-10 4 0 6 5 11 10 11 6 0 10-2 10-4zm1271-24c14-9 47-33 73-52l48-35-46-7c-25-3-61-16-80-27-52-33-121-112-158-182-31-60-33-70-33-169 0-58 3-120 7-139 11-48-10-27-50 49-30 56-32 67-32 164 0 170 23 249 97 336 66 77 122 97 174 62zm1678-154c12-21 20-38 18-38-15 0-107 131-107 151s6 15 33-26c18-28 43-67 56-87zm-207 55c2-6-1-11-6-11s-13-6-18-14c-7-9-8-8-4 5 3 10 6 28 6 40 1 18 2 19 10 7 5-9 10-21 12-27zm-2665 9c10-6 2-31-30-98-24-49-54-115-68-147-22-54-29-61-78-83-30-13-58-23-62-22-8 3 61 188 109 291l31 67h43c24 0 49-4 55-8zm173-48c52-10 115-19 140-22 61-6 142-57 256-163 55-51 112-94 139-105 25-11 45-22 45-25s-25-60-56-125c-68-144-135-259-143-246-3 6-40 29-81 52-41 24-157 97-260 164-102 67-213 139-247 160-35 20-63 40-63 42 0 11 104 260 118 281 11 17 18 20 35 13 12-5 65-17 117-26zm1160 26c36-11 90-52 90-68 0-5-14-12-32-16-21-4-56-31-108-84-122-124-167-239-157-401l5-85-53 55c-67 69-81 125-67 257 17 162 118 305 240 342 37 11 42 11 82 0zm178-124 32-21-32-8c-76-20-122-41-176-82-104-79-160-190-169-337-3-49-8-87-10-85-1 2-8 30-14 61-30 161 73 384 219 477 51 32 96 31 150-5zm114-77c50-32 60-49 31-49-35 0-121-60-182-127-99-108-146-225-160-396l-6-78-61 69c-60 69-61 71-67 143-7 85 9 180 44 254 51 109 200 215 302 215 39 0 61-7 99-31zm133-99c23-24 25-30 12-30-45 0-167-158-167-217 0-10-14-60-30-112-49-154-60-307-34-446 5-28 1-25-61 38-36 37-84 93-106 124-35 51-39 62-39 119 0 88 37 248 72 316 40 76 129 172 192 208 70 41 122 41 161 0zm-1635-165c124-83 263-174 310-204l84-53-69-27-68-28-79 56c-43 31-183 124-312 206l-233 150 56 26c31 14 63 25 71 25 8-1 116-69 240-151zm3501 127c-5-10-18-25-27-33-16-12-17-12-9 1 10 18 37 50 42 50 2 0-1-8-6-18zm-1731-57c36-24 79-55 95-69l30-25-25-17c-66-44-176-172-212-244-54-109-68-183-71-373l-2-165-35 28c-88 70-106 99-120 189-22 141 3 325 74 548 22 68 35 91 76 133 47 48 52 51 87 44 21-4 67-26 103-49zm-1049 9 36-36-13-71c-8-40-30-155-49-257s-37-195-40-208c-10-40-162-190-234-229-37-20-73-43-83-50-9-8-23-15-31-17-8-1-33-19-56-39s-46-37-52-37c-5 0-8-4-4-9 3-6-4-15-15-21-20-11-21-10-10 10 8 15 8 26 2 32-15 15-42-4-77-51l-30-41h-90c-49 0-96 4-104 9-17 11-45 98-62 195-11 58-14 66-21 46-4-15-6-4-3 30 3 44 2 48-4 22-5-18-11-35-14-38-8-9-73 107-93 166-19 55-24 195-9 220 8 13 55-93 55-125 0-15 2-17 9-6 13 20 31-17 33-71l1-43 4 39c4 37 5 38 19 17 31-44 147-121 212-141 117-36 217-23 356 47 37 19 70 32 73 30 6-7-48-112-91-176-20-30-35-56-32-58 9-9 76 94 125 193 75 150 102 241 108 359 5 88 10 111 45 190 22 50 46 105 53 123 18 42 40 41 86-4zm-729-239c109-72 195-135 192-138-4-3 5-12 20-18 14-7 26-17 26-22 0-23 199 31 236 65 21 19 21 19 18-9-4-25-2-23 16 12l20 40-5-50c-3-27-17-87-31-132l-26-81-34 5c-27 5-33 3-29-9 4-10-11-24-47-44-113-62-159-77-243-78-70-1-88 3-148 31-91 43-197 143-198 187 0 22-2 26-7 13-6-13-15-3-40 46-17 35-32 75-32 88s14 75 30 138c17 62 30 116 30 118 0 6 0 6 252-162zm852 115c25-27 46-56 46-65s4-14 9-11c17 11 161-169 161-200 0-12 3-15 8-7 7 12 49-35 170-189l53-67-32-76c-18-41-35-75-40-75-4 0-11 9-14 21-4 11-9 18-12 16-2-3 2-18 10-34 13-26 12-33-17-100l-32-71-21 31c-11 18-28 46-37 62-8 17-15 26-15 20 0-5 14-37 32-71l33-61-38-78c-21-44-38-87-38-97 0-44-52-11-105 66-21 31-40 56-42 56-5 0 3-14 39-67 33-48 32-49-38-25-110 38-224 97-224 115 0 30 42 187 49 183 4-3 5 11 3 31-3 26-1 34 8 28s9-3 1 13c-6 11-11 31-11 44s-14 52-31 88c-36 76-36 67 17 350 39 206 42 220 53 220 5 0 29-22 55-50zm1186-6c36-14 76-33 89-43l23-18-38-2c-76-4-144-26-198-66-47-34-63-54-107-140-28-55-70-147-92-205-36-95-40-116-45-222-2-65-8-118-12-118-24 0-35 82-34 250 1 165 2 179 28 245 48 125 149 254 233 296 26 13 54 30 61 37 18 16 16 16 92-14zm1211-287-24-22 19 27c10 14 21 24 23 22 3-3-6-15-18-27zm-136-238c-4-12-7-46-6-76 0-46-6-66-37-121-44-78-77-154-86-198-8-35-42-55-146-85-91-27-93-25-60 29 49 79 77 135 91 181 9 32 39 73 109 149 52 57 101 113 109 123 18 25 34 24 26-2zm-1675-176c0-7-20-58-45-114s-44-104-42-106 26 46 52 106l48 110 62-58c127-118 422-261 612-296 106-20 191-43 198-55 9-15-72-22-112-10-35 11-49 9-119-14-129-44-285-66-461-66-112 0-170 4-211 16-79 23-152 55-152 67 0 5 18 48 40 95s39 86 37 88-23-37-47-86c-51-104-66-113-125-72-32 23-40 34-38 58 1 23 110 308 173 453 10 23 12 22 70-40 32-35 59-70 60-76zm-1633 5c-3-8-6-5-6 6-1 11 2 17 5 13 3-3 4-12 1-19zm1041-317c31-16 329-111 347-111 3 0 5-8 3-17-2-11 6-19 27-24 17-4 57-18 90-32s92-33 132-42c67-16 81-16 211-2 77 9 222 33 323 53 153 31 188 35 214 25 44-16 109-14 152 4 28 12 44 13 63 6 40-16 163-47 180-46 8 1 22 3 32 3 9 1 34 31 56 66 40 62 41 63 94 69 29 3 68 9 86 13 27 5 31 4 26-9-3-9-18-20-32-25-15-5-52-32-82-61-36-34-63-51-80-51-14 0-30-4-36-9-14-15-290-58-484-77-235-22-662-15-857 15-213 32-472 104-499 138-45 57-46 59-30 97 8 20 18 36 21 36s22-9 43-19zm2145-78c63-54 85-90 95-155 8-52 14-62 61-104 97-87 190-257 236-431 14-54 69-211 121-349s104-284 115-325c12-41 39-127 60-192 31-95 39-135 40-195 0-80 20-198 31-187 4 4 1-12-6-36-9-31-26-53-62-82-71-57-85-62-281-113-285-73-479-73-663 2-36 14-99 39-140 56-75 29-196 91-302 154l-56 34-17 78c-37 172-47 215-90 398-42 179-96 438-110 529-25 162-35 238-35 256 0 15 76-55 273-254 323-326 455-438 761-642 122-81 366-213 366-198 0 4-74 50-165 102-180 104-428 276-594 414-138 115-651 626-651 649 0 19 15 24 100 32 30 3 76 8 101 12 28 4 55 2 70-5 22-11 22-11 6 2-17 14-14 16 35 26 92 20 172 50 254 97l79 45 115-25c124-27 357-53 384-43 39 15 8 22-102 24-107 1-252 19-344 44l-38 10 68 56c96 81 138 128 183 210 29 53 38 78 33 97-6 26 1 46 16 46 5 0 29-17 53-37zm-123-28c-7-8-17-15-22-15-6 0-5 7 2 15s17 15 22 15c6 0 5-7-2-15zm-1908-81c260-81 480-108 868-108 293 0 418 9 675 53 61 10 112 17 114 15 4-4-114-63-163-81-449-163-930-159-1353 11-124 49-283 133-283 148 0 6 8 7 18 3 9-4 65-22 124-41zm1874-5c-55-94-228-240-361-306-198-99-508-133-845-94-260 31-433 61-444 79-6 11-10 11-16 3-5-9-23-7-71 9-129 44-274 131-274 166 0 10-4 25-9 33-7 11-5 13 10 7 258-105 569-166 850-166 419 0 840 93 1012 222 92 70 115 80 74 34-18-21-54-56-80-78-69-59-73-65-17-28 28 19 81 65 118 103 38 38 71 67 74 64s-7-25-21-48zm-1669-145c115-41 190-61 323-85l105-19-85 6c-100 6-277 35-393 64s-347 110-347 122c0 6 9 26 21 44l20 33 132-66c73-36 173-81 224-99zm-314-78c80-56 170-101 246-122 65-18 75-28 39-40-38-11-235-111-327-166-94-55-351-228-351-235 0-3 10 1 23 10 233 153 535 322 652 367 25 9 25 9 25-38 0-26-7-57-15-69-14-20-178-153-646-524-190-151-422-359-497-445l-42-49 35 85c20 46 63 161 97 255 125 350 192 471 341 610 81 75 87 84 87 121 0 58 26 92 151 192 63 51 115 92 117 92s31-20 65-44zm479-173c71-11 109-22 113-31 3-8 16-89 30-180 45-298 115-690 186-1037 102-499 207-961 216-952 2 3 0 22-6 43-29 107-247 1171-292 1424-68 378-120 702-115 707 5 6 152-8 164-16 5-3 28-91 51-196 147-663 433-1642 647-2217 41-109 74-207 74-217 0-45 23-123 47-158 15-22 26-53 27-73l1-35-101-7c-60-5-119-15-145-26-24-10-51-17-60-15-18 4-20 10-169 375-55 136-100 254-100 262s-5 18-11 22c-18 11-4-34 67-214 35-90 64-169 64-177 0-10-12-7-45 11-43 25-45 25-74 8-16-9-34-28-41-42-13-30-20-23-49 48-131 333-331 1416-441 2390-17 151-36 279-41 285-12 12-13 25 16-250 66-626 148-1157 277-1790 28-137 51-262 51-277 0-16 4-25 10-21s8 0 4-9c-3-9 17-82 44-163s49-154 49-161c0-8 4-14 9-14 12 0 44-83 39-103-2-11-23 2-73 45-121 104-231 145-322 119l-31-9-32 126c-68 274-94 499-115 992-1 41-6 147-9 235-4 88-9 178-11 200s-7 121-10 220c-4 99-8 190-10 203-8 52-28 660-22 675 8 21 8 21 139 0zm495-59c62-4 110-10 108-14-5-8 27-239 51-370 37-206 59-307 104-495 27-110 58-247 69-304 12-58 26-121 31-140 5-20 27-119 50-221 49-227 145-547 287-958 20-56 34-104 32-106s-34 8-71 22l-67 26-60 156c-147 385-335 982-516 1645-44 162-195 757-195 771 0 3 15 4 33 0 17-3 82-8 144-12zm-663-329c4-137 9-284 11-325 3-41 7-165 10-275s8-228 11-262c6-61 6-63-17-64-18-1-19-3-6-6 50-13-218-159-412-223-218-73-346-77-560-15-126 35-207 44-255 26-13-6-41-7-61-4-35 6-35 6-18 26 25 27 190 144 293 207 47 29 206 119 353 201 301 168 367 208 482 291 44 33 99 64 123 70 23 6 42 15 42 20 0 20-78-6-130-43-123-87-220-150-320-206-58-33-197-112-310-176-224-126-353-207-472-298l-78-59v37c0 57 35 184 69 251 54 107 353 385 691 642 139 106 526 416 533 428 5 7 10 12 12 10 1-2 5-115 9-253zm36-1038c0-41-3-46-47-78-27-18-68-52-93-74-111-101-250-190-376-242-46-19-55-27-78-77-39-82-87-296-67-296 4 0 26 55 48 123 52 156 73 192 128 216 82 36 85 36 75 1-5-16-8-59-6-95 2-56 6-70 35-105 28-35 32-47 27-75-9-45-58-142-97-188-35-42-121-103-187-132-37-16-45-17-53-4-7 12-9 11-9-2 0-23-40-33-41-11-1 16-2 16-6 0-13-51-287-17-424 53-37 19-89 95-103 152-3 15-10 27-15 27-17 0-91 128-112 194l-21 67 36 142c61 239 65 250 88 244 11-3 38 1 60 9 60 21 142 17 243-11 50-13 124-30 166-36 163-24 398 36 650 164 79 41 152 75 162 76 14 1 17-7 17-42zm1165-91c88-55 255-140 353-179 203-83 374-75 762 32 79 22 148 37 152 35 4-3 8-17 8-32s14-91 30-170c30-151 41-174 144-317 35-47 41-62 31-70-9-7-15-42-17-110-3-87-7-108-33-160-59-119-200-227-335-256-123-26-306 19-411 103-28 22-53 38-55 35-9-8 102-86 160-113 132-60 238-69 361-30 138 44 249 139 308 263 27 58 32 81 35 161 2 50 8 92 12 92 12 0 82-108 95-147 6-18 14-31 17-28s22-32 43-77c57-124 59-135 41-154-11-10-16-33-16-67 0-114-54-224-159-327-116-113-230-162-381-163-170-2-292 66-333 185-5 15-3 15 26-2 18-10 63-28 101-40 93-30 256-25 361 12 79 28 171 73 180 88 3 5-16-1-42-14-78-40-198-76-287-88-104-13-209 6-306 54-63 33-65 34-112 129-41 83-178 403-178 418 0 3 23-20 51-50s40-40 27-23-49 76-79 130c-40 74-70 114-119 159-171 158-242 246-375 465-55 91-136 246-156 297-7 18-6 22 4 17 6-4 48-30 92-58zm-1154-83c0-43 2-85 3-93 2-8 6-73 10-143 4-71 9-138 11-150s6-53 10-92c17-192 100-580 130-613 9-10 18-10 41-2 16 7 54 11 86 11 60-1 120-29 203-95 69-56 135-97 144-91 5 3 15 22 22 43 14 43 46 92 61 92 5 0 23-9 39-21 17-12 41-24 55-28 21-5 32-24 65-104 21-53 39-104 39-112 0-19 37-38 64-32 11 3 39 12 61 20s83 18 135 21c113 8 130 19 130 83 0 41-13 81-30 93-9 7-52 151-47 157 3 2 39-12 80-31 109-52 111-51 76 50-125 359-310 967-309 1016 0 7 29-41 63-107 103-197 206-343 318-450 179-171 171-159 221-295 116-309 145-386 153-405s7-19-11-5c-11 8-6 2 12-15 53-50 232-390 297-566 45-120 94-322 101-413 5-70-10-176-41-289-12-44-19-56-32-53-31 10-179 26-416 46-410 35-544 50-735 86-320 59-805 176-828 199-3 3 0 27 7 54 11 43 10 53-6 83-122 230-192 383-187 408 4 17 0 37-10 53-10 14-25 60-35 104-17 68-23 102-37 188-5 34-23 235-29 330-15 224-41 390-70 440-24 42-28 46-132 158l-63 67v100 100l43 27c68 43 146 103 234 180 46 40 87 73 93 73s10-32 11-77zm-268-593c48-54 77-117 59-129-6-3-14-20-18-36-19-82-79-150-196-226-106-68-296-115-433-107-104 7-210 52-254 107-31 40-83 133-77 139 2 2 28-9 58-24 102-52 187-75 295-81 82-5 103-9 106-22 3-11 5-9 6 5 1 22 42 41 61 29 6-4 10-2 10 3 0 6 24 24 53 40 93 53 200 182 248 296 12 31 26 56 30 56s28-23 52-50zm90-283c13-102 12-109-5-118-10-6-26-28-34-50-23-55-91-112-207-169-104-53-122-58-130-37-3 7-6 5-6-5-1-27-74-42-201-42-96 0-125 4-172 22l-56 23-58 117c-32 64-60 121-62 125-3 5 15-5 39-22 92-67 267-94 403-62 54 13 56 12 59-17 0-11 4-19 8-17 3 3 4 15 2 28-4 22 1 25 54 40 126 36 297 169 322 252 21 67 23 72 28 55 2-8 9-64 16-123zm3086-357c27-176 27-239 0-293-59-116-175-245-259-287-146-73-245-78-363-20-105 53-161 108-213 211-24 49-41 89-38 89s17-9 30-19c47-37 152-64 244-64 159 0 277 50 396 168 111 109 163 216 165 340 1 74 13 33 38-125zm-3099 117c0-41-75-142-157-212-128-109-301-180-461-188l-43-2-60 114c-33 62-58 115-55 118s24-2 48-12c63-26 242-32 332-11 128 30 300 119 365 190 30 32 31 32 31 3zm70-352c6-38 14-81 17-94 6-23 6-23-23-6-28 17-27 16 4-11 18-16 32-35 32-42s-22-35-49-62c-53-53-153-108-247-136-81-24-221-23-293 2-50 18-55 22-67 64-8 25-14 46-14 46 0 1 17-2 38-7 50-12 177-11 231 2 24 5 80 24 124 41 68 26 93 42 149 97 82 81 109 156 43 121-17-9-21-16-14-21 8-5 5-16-10-38-74-104-269-191-427-191-131 0-136 3-175 83-19 38-35 73-37 77-1 3 41 12 94 19s119 20 147 28c167 49 365 202 421 323l20 45 12-135c7-74 18-166 24-205zm3066-92c-1-10 3-80 7-156 8-128 7-140-10-153-16-13-16-13 0-8 40 14 12-20-64-76-93-69-220-134-294-150-157-35-335 15-359 100-11 40-69 215-82 245-5 13 7 7 42-21 146-120 263-140 432-73 99 38 155 85 242 200 33 44 60 73 60 64 0-33-62-201-97-265-46-82-141-182-199-209-57-27-157-28-243-1-85 25-91 18-8-9 95-32 154-36 222-16 82 23 185 126 242 240 49 98 83 194 90 257 5 45 21 69 19 31zm-2962-257c40-119 98-250 147-330 17-28 32-60 32-72 0-32-71-128-115-155-21-13-41-22-45-21-3 2-9-1-12-6-13-20-76-44-228-87-93-26-163-52-170-62-7-9-20-41-28-71-21-70-52-119-108-168-49-43-150-98-169-92-7 3-18-1-25-8s-38-16-68-19c-30-4-55-11-55-16s-15-15-32-22c-32-14-73-49-114-99-25-32-105-50-196-46l-63 3 83 59c45 33 82 63 82 68s-13 36-29 70l-30 62 30 34c17 19 38 50 47 70 9 19 42 59 72 88s52 56 48 59c-4 4-35-12-69-36-50-35-69-56-93-104-22-43-61-90-138-166-59-58-108-113-108-121 0-19-17-27-42-20-29 7-21 23 37 77 30 28 55 54 55 58s-12 7-27 7c-23 0-25 2-13 11 12 8 12 12 2 16-8 3 34 54 109 134 67 71 119 132 115 136-13 14-65-26-166-127-126-126-186-176-192-158s92 145 146 191c25 21 46 47 46 57s5 22 10 25c12 8 239 286 340 417 140 182 139 181 158 262 11 52 21 75 30 71 7-2 12 3 12 14 0 27 10 32 39 17 45-23 132-39 206-38 131 1 270 51 375 135 66 53 63 56 114-97zm2991-263c-2-7-16-13-30-13s-25-5-25-11-9-32-21-59c-19-45-26-50-97-83-42-19-101-40-130-46-117-25-257-7-317 41-18 14-26 17-23 7 13-40 156-89 261-89 57 0 202 31 240 51 17 10 17 9 3-19-21-41-102-119-151-145-33-18-57-22-135-22-85 0-100 3-140 27-25 14-62 44-83 65-35 37-39 46-57 154-11 63-23 125-26 138l-7 24 44-26c52-31 147-57 204-57 119 1 283 65 410 162l70 53 8-70c4-38 5-76 2-82zm-10-122c-3-6-11-11-17-11s-6 6 2 15c14 17 26 13 15-4zm-25-28c-1-5-12-21-26-38-15-16-24-25-20-19 3 6 10 23 15 38 9 23 32 37 31 19zm105-419c16-70 16-70-15-204-38-164-46-225-32-243 7-8 18-33 27-56 17-50 9-108-31-209-26-64-27-69-15-137 24-130 24-137 2-130-31 10-54-22-48-67 4-33 2-39-11-36-14 3-18 21-22 113-5 102-9 109-23 40-4-15-5-13-6 7 0 15-5 30-11 33-6 4-10-24-10-77v-84l-55 1h-55v74c0 41-3 71-7 68-3-4-11-40-18-79l-11-73-8 75c-7 74-19 111-31 99-3-3 0-62 6-130 16-169 17-211 1-216-9-4-12 12-10 66 2 44-1 74-9 82-19 19-62 2-84-34l-21-32 7 113c4 73 3 112-3 112s-13-30-17-67c-9-98-11-98-20 5-4 50-11 92-16 92-10 0-10-143 0-274 5-68 3-90-7-93-22-9-24 3-12 64 9 52 9 60-8 73-10 9-17 21-14 28 7 22-55 13-85-12-25-21-27-29-25-81 2-42-1-56-10-52-15 5-16 39-4 221 6 95 6 127-3 122-6-4-11-22-11-41s-4-36-9-39c-13-9-21 36-16 91l5 48-15-45c-9-25-25-99-36-165s-27-139-36-162c-13-37-20-43-44-43-16 0-29 3-29 7 0 3 14 35 30 70 17 34 30 72 30 82 0 25-84 81-121 81-44 0-99-90-86-141 6-22-11-37-19-16-5 13 80 266 125 370 24 55 25 61 11 52-6-4-25-36-44-73l-33-66-5 79c-5 71-2 85 22 136 14 31 46 123 70 205 25 82 48 151 52 152 5 2 6 7 3 11-2 5 11 79 31 165 19 86 32 161 29 166-3 4 4 66 15 136 11 71 20 133 20 138s15-11 33-37c40-56 96-102 144-118 57-19 168-7 243 26 79 35 176 101 218 149l31 36-1-58c0-31-7-93-14-137-17-95-17-102-5-89 8 9 35 93 51 162 5 18 4 32-1 32s-9-12-9-27c0-14-2-24-5-21s-3 43 1 89l7 84 33-160c18-88 40-192 49-231zm-2421-82c516-512 603-595 781-748 114-98 235-186 235-170 0 2-33 28-72 58-135 99-343 284-549 488-112 111-196 197-186 190 9-7 16-9 16-4-2 11-480 470-488 467-3 0-35 28-71 64-71 71-70 71 50 28 36-13 133-38 215-56 83-17 154-34 160-37 5-3 19-7 31-8s80-14 151-28c180-36 355-64 458-72l88-7 101-95c55-52 185-181 287-286 103-105 190-188 193-185s-120 131-274 283l-280 278 73-7c90-8 88-6 340-254 108-107 197-190 197-184 0 9-169 177-342 341-49 45-88 85-88 88s14 2 32-1c50-11 438-372 438-408 0-22-74-228-107-297l-35-75 6-135 7-134-32-78c-18-43-36-78-41-78s-34 11-66 24c-88 37-146 51-447 111-154 31-287 58-295 62-8 3-28 7-44 9-17 3-41 14-55 27-14 12-19 14-12 5 17-22 14-22-79 0-67 16-85 26-165 91-168 136-399 347-685 626l-285 278 280-279c288-288 514-497 667-619 48-38 87-70 85-71-1-1-71 15-154 36-135 33-158 42-200 76-111 89-379 330-523 469-85 82-191 183-235 224l-80 76 70-71c165-168 453-439 607-574 92-79 166-145 164-147-1-2-18 2-37 9-40 13-154 100-299 228-133 117-540 501-540 509 0 3 7 28 15 55 16 53 31 76 49 76 7 0 118-102 247-227 395-383 759-709 759-680 0 3-46 42-102 89-135 111-326 285-518 472-85 83-201 194-258 246-56 52-102 97-102 100 0 4 24 12 53 19 28 8 87 25 130 38l79 24 272-268c439-433 840-803 854-788 3 2-11 17-29 32-101 84-199 171-329 292-163 153-718 697-738 723-11 15-9 19 17 33l30 15 233-233c467-466 964-935 977-921 3 4-30 38-74 77-100 88-536 530-529 536 3 3 78-67 167-155 255-252 414-396 485-438 31-18 6 6-65 65-146 119-249 216-588 549-126 124-304 296-395 382-134 126-163 159-152 169 10 11 21 5 60-31l47-45-43 45c-33 36-39 49-30 58s20 5 48-20l35-33-32 35c-31 34-32 36-15 63 9 15 25 27 36 27s181-161 440-418zm-173-86c16-2 169-151 165-162-2-6 14-29 36-50 22-22 44-48 50-59 11-21-299 281-528 515-73 74-130 138-128 142 3 5 94-80 202-189 108-108 200-197 203-197zm1467 95c189-166 224-203 216-224-5-14-24 0-95 68-49 46-139 128-199 181-61 53-110 98-110 100s9 4 21 4 79-52 167-129zm2 55c118-96 220-197 220-217 0-18-39 15-309 258-33 29-34 32-11 26 14-4 59-34 100-67zm53 7c138-110 177-147 177-172 0-21-8-16-68 41-38 35-101 90-140 122-40 32-72 60-72 62 0 17 43-5 103-53zm123-15c52-51 63-67 58-85l-6-23-28 23c-14 12-62 50-105 85l-78 62h48c44 0 51-4 111-62zm-3421 42c-4-6-24-19-45-30-23-12-63-51-103-102-62-80-113-134-92-98 59 103 123 173 195 214 52 29 53 30 45 16zm3493-5c1-1-1-19-5-39l-8-37-39 47-39 46 44-7c24-4 45-8 47-10zm-2068-550c74-66 163-142 198-169 34-27 62-50 62-52 0-1-13 1-29 6-48 13-227 164-558 467-188 172-211 196-201 213 10 16 31 0 203-163 105-100 251-236 325-302zm645 365c44-44 77-80 75-80-3 0-41 36-85 80s-77 80-75 80c3 0 41-36 85-80zm-967-129c210-193 396-354 461-400 18-13 31-25 29-27s-26 3-52 11c-60 18-126 74-639 536-45 41-50 48-38 63 7 9 15 16 18 16 2 0 102-90 221-199zm-128 43c69-64 203-184 298-267 168-146 221-204 105-116-118 89-401 316-485 388-83 71-87 76-71 93 9 10 19 18 22 18s62-52 131-116zm-100 10c80-70 370-304 458-369 72-54 45-58-32-4-122 85-395 300-520 410-9 8 0 29 12 29 4 0 41-30 82-66zm36-84c49-41 148-120 219-174 72-54 137-105 145-113 30-29-39 5-113 56-56 38-414 307-437 328-3 3 4 11 14 19 17 12 23 10 51-14 18-15 73-61 121-102zm-66-6c74-58 179-137 233-176 53-38 97-72 97-74 0-6-48 15-77 33-15 10-39 18-53 19-39 2-181 74-323 164-71 45-133 80-139 78s11-15 38-29 85-49 129-78c74-49 77-53 43-47-21 4-86 36-145 71s-110 61-112 59c-5-5 29-31 42-33 21-2 67-33 62-41-3-5-37 10-75 33l-70 42 22 17c13 10 47 22 75 28l53 11 162-111c140-96 264-175 248-158-3 3-94 65-203 139-187 126-196 134-175 146 13 7 25 12 28 12 3 1 66-47 140-105zm-817 27c-21-27-40-44-42-39-3 8 66 88 77 88 2 0-14-22-35-49zm-103 26c0-2-15-16-32-33-27-24-29-25-13-4 24 30 45 47 45 37zm568-49c7-7 12-9 12-5 0 5 19-5 43-21 68-47 88-56 97-42 5 8 17 5 43-10 44-26 49-37 7-15-34 18-54 20-44 4 8-14-31-3-65 18-16 10-21 11-16 2 6-9 3-10-11-5-10 5-28 9-39 11-11 1-21 4-22 5-2 1-6 3-10 4-5 1-18 7-30 14-12 6-30 9-40 5-17-7-17-6 0 11 17 18 19 17 57-8 22-14 43-26 47-26s-9 11-30 26c-21 14-35 29-32 35 8 12 19 11 33-3zm2936-740c-3-13-13-34-21-48l-14-25 7 25c4 14 8 34 10 45 3 26 2 25 15 25 6 0 8-9 3-22zm35-10c0-7-14-40-30-73-31-64-32-62-3 28 16 51 35 77 33 45zm19-33c-6-14-13-23-15-21-5 5 15 46 22 46 3 0-1-11-7-25zm302-31c0-8-7-14-15-14s-15 9-15 20c0 13 5 18 15 14 8-4 15-12 15-20zm407-9c-4-8-11-15-17-15-7 0-7 6 0 21 13 23 26 19 17-6zm-247-60c0-8-4-15-10-15-5 0-10 7-10 15s5 15 10 15c6 0 10-7 10-15zm-589-92c-8-15-10-15-11-2 0 17 10 32 18 25 2-3-1-13-7-23z"/><path d="m3840 11430c-23-7-23-8-3-9 12-1 25 4 28 9 3 6 5 10 3 9s-14-5-28-9z"/><path d="m3862 11385c-77-58-156-144-251-272-67-90-149-223-138-223 2 0 23 33 47 73 108 182 266 363 390 449 14 9 22 17 18 17-3 1-33-19-66-44z"/><path d="m3764 11404c-19-15-19-15 1-6 11 5 27 12 35 15 13 5 13 6-1 6-8 1-24-6-35-15z"/><path d="m4070 11410c-8-5-10-10-5-10 6 0 17 5 25 10s11 10 5 10c-5 0-17-5-25-10z"/><path d="m3683 11351c-93-73-186-203-245-343-20-45-38-94-42-108-7-28 10 6 56 118 53 129 158 269 258 345 19 15 32 27 28 27-3 0-28-17-55-39z"/><path d="m3998 11374c-38-20-36-28 2-9 17 9 30 18 30 20 0 7-1 6-32-11z"/><path d="m3884 11298c-75-57-181-159-233-225-54-71-29-48 41 35 58 69 138 141 243 219 17 12 27 23 24 23s-37-23-75-52z"/><path d="m3862 11165c-29-20-96-79-150-132l-97-96 98 92c55 51 123 108 153 128 47 31 61 43 51 43-1 0-26-16-55-35z"/><path d="m3595 10994c-9-15-12-23-6-20 11 7 35 46 28 46-3 0-12-12-22-26z"/><path d="m3535 10900c-9-16-13-30-11-30 3 0 12 14 21 30 9 17 13 30 11 30-3 0-12-13-21-30z"/><path d="m3372 10833c-20-68-42-184-41-216 1-20 5-9 10 28 5 33 18 96 29 139 20 82 22 115 2 49z"/><path d="m3486 10813c-6-14-5-15 5-6 7 7 10 15 7 18s-9-2-12-12z"/><path d="m3460 10769c-7-11-10-23-7-25 2-2 9 7 15 21 14 30 7 33-8 4z"/><path d="m4118 11213c17-2 47-2 65 0 17 2 3 4-33 4s-50-2-32-4z"/><path d="m4038 11203c6-2 18-2 25 0 6 3 1 5-13 5s-19-2-12-5z"/><path d="m4165 11179c181-14 329-49 376-90 15-13 25-16 27-9 16 46-259 113-446 109-42-1-31-4 43-10z"/><path d="m4250 11029c46-16 89-29 95-28 5 0-28 14-75 30-46 16-89 29-95 28-5 0 28-14 75-30z"/><path d="m4138 10993c7-3 16-2 19 1 4 3-2 6-13 5-11 0-14-3-6-6z"/><path d="m4180 10980c8-5 20-10 25-10 6 0 3 5-5 10s-19 10-25 10c-5 0-3-5 5-10z"/><path d="m4688 11026c-54-69-101-162-121-238-14-55-14-57 7-76 35-32 76-55 84-48 4 4-13 25-38 46l-45 38 13 46c17 63 52 136 66 136 6 0 24-7 40-15 16-9 31-13 33-11 10 10-8 25-37 31-17 4-30 11-30 17s18 36 41 65c54 73 43 80-13 9z"/><path d="m4023 10833c9-2 23-2 30 0 6 3-1 5-18 5-16 0-22-2-12-5z"/><path d="m4635 10830c-3-5 19-21 49-34l56-25 1-78c2-104 2-103-36-143-35-37-75-105-75-128 0-7-4-10-10-7-17 10-11 84 10 125 28 56 26 65-25 90-24 12-54 34-65 48l-21 27 3-25c3-21 32-48 86-79 12-7 11-16-2-56-16-47-14-99 6-137 14-28 23-22 48 32 13 28 43 72 67 98l43 47v101c0 107-1 110-57 142-27 14-69 16-78 2z"/><path d="m3810 10805c0-32 36-82 81-112 76-50 194-32 238 37 12 20 9 18-15-7-54-56-149-66-220-22-41 25-53 40-70 86-8 23-13 30-14 18z"/><path d="m3870 10803c0-14 67-73 83-73 7 0-2 9-19 19-18 11-39 30-48 42-9 13-16 18-16 12z"/><path d="m3442 10553c-15-48-8-55 8-8 7 20 10 38 8 41-3 2-10-13-16-33z"/><path d="m3506 10394c-4-14-5-28-3-31 3-2 8 8 11 23 4 14 5 28 3 31-3 2-8-8-11-23z"/><path d="m4070 10329c-23-27-40-52-38-54 7-7 68 46 63 55-3 5 7 18 21 29 17 13 21 21 12 21-8 0-34-23-58-51z"/><path d="m4175 10368c-48-17-58-23-61-41-3-22 3-21 36 6 15 12 36 27 46 34 23 14 19 14-21 1z"/><path d="m3491 10334c0-11 3-14 6-6 3 7 2 16-1 19-3 4-6-2-5-13z"/><path d="m3476 10274c-4-20-5-38-3-40 3-3 8 11 11 32 4 20 5 38 3 40-3 3-8-11-11-32z"/><path d="m4457 10223c-4-32-9-80-13-108-4-27-3-47 1-42 5 4 9 17 10 30 1 12 5 57 9 100 5 42 6 77 4 77-3 0-8-26-11-57z"/><path d="m3881 10259c-18-7-21-13-13-21s18-5 38 11c28 22 16 27-25 10z"/><path d="m3441 10214c0-11 3-14 6-6 3 7 2 16-1 19-3 4-6-2-5-13z"/><path d="m3280 10185c19-19 36-35 39-35s-10 16-29 35-36 35-39 35 10-16 29-35z"/><path d="m3461 10204c0-11 3-14 6-6 3 7 2 16-1 19-3 4-6-2-5-13z"/><path d="m3300 10136c0-3 13-12 29-21 33-17 50-5 24 16-12 10-14 10-9 2 9-16 1-16-25-3-10 6-19 8-19 6z"/><path d="m3430 10046c0-2 8-10 18-17 15-13 16-12 3 4s-21 21-21 13z"/><path d="m4852 9775c0-16 2-22 5-12 2 9 2 23 0 30-3 6-5-1-5-18z"/><path d="m3833 9770c-37-22-48-41-56-91-7-48 8-73 22-36 6 15 18 27 28 28s27 2 38 3c22 1 55 57 55 94 0 17-6 22-27 22-16 0-42-9-60-20z"/><path d="m4210 9605c-7-8-18-15-25-15s-18-7-25-15-16-12-21-9-6-2-3-11c4-10 2-15-7-13-7 2-15-6-17-17-4-19-4-19 15-2 11 9 24 17 29 17 6 0 28 18 49 40s34 40 28 40-16-7-23-15z"/><path d="m4371 8853c-1-23 3-44 7-47 4-2 6 12 4 32-5 56-10 62-11 15z"/><path d="m3771 10993c-30-16-72-45-95-67-39-36-24-32 20 6 11 10 52 34 90 53s62 35 54 35c-9 0-40-12-69-27z"/><path d="m3660 10864c-22-20-40-33-40-28 0 4-11-3-25-16s-25-28-25-34c1-6 12 3 25 19 33 40 32 23-1-21-15-19-25-37-22-40 3-2 18 12 34 33s46 57 68 81c47 51 40 55-14 6z"/><path d="m4990 10506c0-3 9-10 20-16s20-8 20-6c0 3-9 10-20 16s-20 8-20 6z"/><path d="m4880 10496c0-3 9-10 20-16s20-8 20-6c0 3-9 10-20 16s-20 8-20 6z"/><path d="m4930 10465c0-2 18-14 40-25s40-18 40-15c0 2-18 14-40 25s-40 18-40 15z"/><path d="m5135 10423c6-6 37-26 70-44s56-28 50-22c-5 5-37 25-70 43s-55 28-50 23z"/><path d="m5340 10076c0-2 8-10 18-17 15-13 16-12 3 4s-21 21-21 13z"/><path d="m3041 9834c0-11 3-14 6-6 3 7 2 16-1 19-3 4-6-2-5-13z"/><path d="m5664 9648-19-23 23 19c21 18 27 26 19 26-2 0-12-10-23-22z"/><path d="m5553 9508c-254-323-482-677-643-998-61-120-122-261-117-266 2-2 23 40 46 94 123 289 375 703 658 1080 83 111 150 202 148 202s-43-51-92-112z"/><path d="m4909 8973c-13-16-12-17 4-4 9 7 17 15 17 17 0 8-8 3-21-13z"/><path d="m4820 8840c-6-11-8-20-6-20 3 0 10 9 16 20s8 20 6 20c-3 0-10-9-16-20z"/><path d="m4793 8798c-15-20-25-38-20-38 3 0 12 11 21 25 17 26 16 35-1 13z"/><path d="m4720 8680c-6-11-8-20-6-20 3 0 10 9 16 20s8 20 6 20c-3 0-10-9-16-20z"/><path d="m4650 8560c-6-11-8-20-6-20 3 0 10 9 16 20s8 20 6 20c-3 0-10-9-16-20z"/><path d="m4586 8433c-6-14-5-15 5-6 7 7 10 15 7 18s-9-2-12-12z"/><path d="m5885 9480c3-5 8-10 11-10 2 0 4 5 4 10 0 6-5 10-11 10-5 0-7-4-4-10z"/><path d="m5820 9435c-24-24-46-42-50-40-4 3-15-4-24-14-10-11-13-21-8-25 5-3 37 24 72 59 36 36 62 65 59 65s-25-20-49-45zm-50-49c0-2-8-10-17-17-16-13-17-12-4 4s21 21 21 13z"/><path d="m5779 9423c-13-16-12-17 4-4 9 7 17 15 17 17 0 8-8 3-21-13z"/><path d="m5702 9323c-34-50-36-58-5-30 16 15 30 34 30 42 0 20-3 19-25-12z"/><path d="m5549 9189c-22-45-39-83-37-85s23 35 46 81c23 47 40 85 37 85s-23-36-46-81z"/><path d="m5492 9065c-6-14-8-25-3-25 8 0 23 41 17 47-1 2-8-8-14-22z"/><path d="m6212 8990c0-14 2-19 5-12 2 6 2 18 0 25-3 6-5 1-5-13z"/><path d="m5491 8974c0-11 3-14 6-6 3 7 2 16-1 19-3 4-6-2-5-13z"/><path d="m5526 8860c3-14 11-32 16-40 6-10 7-7 2 10-3 14-11 32-16 40-6 10-7 7-2-10z"/><path d="m6242 8830c0-14 2-19 5-12 2 6 2 18 0 25-3 6-5 1-5-13z"/><path d="m6212 8790c0-19 2-27 5-17 2 9 2 25 0 35-3 9-5 1-5-18z"/><path d="m5550 8795c0-5 5-17 10-25s10-10 10-5c0 6-5 17-10 25s-10 11-10 5z"/><path d="m5620 8789c0-5 5-7 10-4 6 3 10 8 10 11 0 2-4 4-10 4-5 0-10-5-10-11z"/><path d="m6225 8755c-7-44-9-47-16-25-6 18-7 14-3-15 3-24 1-35-4-27s-14-7-26-45c-43-139-145-317-216-376-35-30-36-34-13-39 15-3 15-4 0-16-13-11-21-2-61 70-25 46-46 79-46 74 0-12 92-186 99-186 16 1 91 81 95 101 1 8 21 46 44 85 73 122 170 385 160 432-2 9-8-5-13-33zm-35-122c-11-17-11-17-6 0 3 10 6 24 7 30 0 9 2 9 5 0 3-7 0-20-6-30zm-200-378c-7-9-15-13-19-10-3 3 1 10 9 15 21 14 24 12 10-5z"/><path d="m5631 8768c-1-12 31-89 35-85 3 2-4 24-15 48s-20 41-20 37z"/><path d="m5811 8425c0-5 6-21 14-35s14-20 14-15c0 6-6 21-14 35s-14 21-14 15z"/><path d="m6076 8311c-11-12-16-21-11-21 4 0-4-15-19-34-21-28-24-39-17-58 7-15 10-18 10-6 1 9 15 21 31 27 17 5 30 15 30 20 0 7-8 7-25 1l-25-9 26 39c29 44 29 73 0 41z"/><path d="m5751 8044c0-11 3-14 6-6 3 7 2 16-1 19-3 4-6-2-5-13z"/><path d="m4802 7984c-23-19-51-49-63-67-19-28-17-27 17 8 22 23 55 53 74 68s30 27 24 27-29-16-52-36z"/><path d="m5762 7960c0-14 2-19 5-12 2 6 2 18 0 25-3 6-5 1-5-13z"/><path d="m5926 7769c-66-56-104-78-75-43 9 11-3 8-38-10-70-35-97-33-135 7l-31 32 22-32c13-19 34-35 49-39 15-3 35-7 44-9 10-2 21 1 24 6s11 9 17 9c7 0 3-7-7-15s-22-12-26-10c-4 3-13-2-20-10-41-50 125 54 205 128 70 65 53 57-29-14z"/><path d="m5227 7669c-17-54-11-82 13-54 7 9 8 15 2 15-7 0-7 11-1 36 16 58 5 60-14 3z"/><path d="m5277 7643c-18-44-6-67 20-40 11 10 13 17 5 17-7 0-9 10-5 30 8 41-2 38-20-7z"/><path d="m4636 7655c-12-32-18-115-8-115 5 0 13 7 16 16s2 12-5 9c-10-7-6 38 8 88 5 21-3 23-11 2z"/><path d="m4671 7523c-1-25 6-28 29-13 13 8 13 10-2 10-9 0-19 6-21 13-3 6-6 2-6-10z"/><path d="m4760 7509c0-23 17-34 70-47 61-15 62-8 1 13-28 9-55 24-61 33-8 15-9 15-10 1z"/><path d="m3301 9085c3-2 36-21 74-41 52-26 65-30 51-15-10 11-35 25-55 32-20 6-40 15-45 20-10 9-33 13-25 4z"/><path d="m3234 8961c4-5 26-16 51-25 27-9 72-38 107-71 84-76 96-70 16 8-44 44-79 69-113 80-55 19-69 21-61 8z"/><path d="m3515 8930c10-11 20-20 23-20s-3 9-13 20-20 20-23 20 3-9 13-20z"/><path d="m3160 8827c0-2 26-14 58-26 37-13 73-37 101-66 25-25 50-45 55-45 6 0-14 24-43 54-38 39-66 57-96 65-23 6-50 13-59 17-9 3-16 4-16 1z"/><path d="m3480 8626c0-2 8-10 18-17 15-13 16-12 3 4s-21 21-21 13z"/><path d="m3595 8540c3-5 11-10 16-10 6 0 7 5 4 10-3 6-11 10-16 10-6 0-7-4-4-10z"/><path d="m4181 8894c0-11 3-14 6-6 3 7 2 16-1 19-3 4-6-2-5-13z"/><path d="m4171 8854c0-11 3-14 6-6 3 7 2 16-1 19-3 4-6-2-5-13z"/><path d="m4162 8800c0-14 2-19 5-12 2 6 2 18 0 25-3 6-5 1-5-13z"/><path d="m4152 8740c0-19 2-27 5-17 2 9 2 25 0 35-3 9-5 1-5-18z"/><path d="m5381 8760c0-14 28-72 29-59 0 4-7 22-15 40-8 19-14 27-14 19z"/><path d="m2571 7714c0-11 3-14 6-6 3 7 2 16-1 19-3 4-6-2-5-13z"/><path d="m2612 7615c0-16 2-22 5-12 2 9 2 23 0 30-3 6-5-1-5-18z"/><path d="m2601 7564c0-11 3-14 6-6 3 7 2 16-1 19-3 4-6-2-5-13z"/><path d="m2650 7966c0-2 8-10 18-17 15-13 16-12 3 4s-21 21-21 13z"/><path d="m2695 7910c10-11 20-20 23-20s-3 9-13 20-20 20-23 20 3-9 13-20z"/><path d="m3310 7868c0-9-6-19-12-21-10-4-10-6 0-6 14-1 28 26 18 36-3 4-6-1-6-9z"/><path d="m2750 7845c13-14 26-25 28-25 3 0-5 11-18 25s-26 25-28 25c-3 0 5-11 18-25z"/><path d="m3243 7833c9-2 23-2 30 0 6 3-1 5-18 5-16 0-22-2-12-5z"/><path d="m2805 7800c10-11 20-20 23-20s-3 9-13 20-20 20-23 20 3-9 13-20z"/><path d="m2897 7739c7-7 15-10 18-7s-2 9-12 12c-14 6-15 5-6-5z"/><path d="m3222 7733c-13-9-45-22-70-29-26-7-39-13-28-13 30-1 90 19 117 40 29 23 13 24-19 2z"/><path d="m2940 7720c8-5 20-10 25-10 6 0 3 5-5 10s-19 10-25 10c-5 0-3-5 5-10z"/><path d="m2995 7700c19-8 73-14 64-6-2 2-22 6-44 9-28 5-34 4-20-3z"/><path d="m3078 7683c7-3 16-2 19 1 4 3-2 6-13 5-11 0-14-3-6-6z"/><path d="m3742 8040c0-14 2-19 5-12 2 6 2 18 0 25-3 6-5 1-5-13z"/><path d="m3751 7994c0-11 3-14 6-6 3 7 2 16-1 19-3 4-6-2-5-13z"/><path d="m3761 7954c0-11 3-14 6-6 3 7 2 16-1 19-3 4-6-2-5-13z"/><path d="m3771 7904c0-11 3-14 6-6 3 7 2 16-1 19-3 4-6-2-5-13z"/><path d="m3786 7850c4-19 11-44 15-55 6-14 7-9 3 15-4 19-11 44-15 55-6 14-7 9-3-15z"/><path d="m3911 7840c0-8 4-24 9-35 5-13 9-14 9-5 0 8-4 24-9 35-5 13-9 14-9 5z"/><path d="m3811 7754c0-11 3-14 6-6 3 7 2 16-1 19-3 4-6-2-5-13z"/><path d="m3941 7740c0-8 4-22 9-30 12-18 12-2 0 25-6 13-9 15-9 5z"/><path d="m3821 7714c0-11 3-14 6-6 3 7 2 16-1 19-3 4-6-2-5-13z"/><path d="m3841 7644c0-11 3-14 6-6 3 7 2 16-1 19-3 4-6-2-5-13z"/><path d="m3980 7627c0-13 42-118 46-115 2 2-6 29-17 59-20 52-29 70-29 56z"/><path d="m3862 7580c0-8 6-31 13-50s13-28 13-20-6 31-13 50-13 28-13 20z"/><path d="m3896 7470c3-14 11-32 16-40 6-10 7-7 2 10-3 14-11 32-16 40-6 10-7 7-2-10z"/><path d="m3605 7400c5-8 29-46 55-85 65-97 68-104 30-70l-33 30 38-55c47-67 61-83 46-50-10 20-6 18 20-10 45-50 35-31-60 110-76 114-118 171-96 130z"/><path d="m3690 7330c6-11 13-20 16-20 2 0 0 9-6 20s-13 20-16 20c-2 0 0-9 6-20z"/><path d="m3719 7285c5-11 17-29 26-40l16-20-10 20c-5 11-17 29-26 40l-16 20z"/><path d="m5110 6486c0-2 7-7 16-10 8-3 12-2 9 4-6 10-25 14-25 6z"/><path d="m5170 6455c0-17 347-165 479-205 172-51 392-66 515-34 74 19 80 24 61 50-12 15-14 15-9 2 12-35-149-58-321-46-164 11-406 86-630 194-97 47-95 46-95 39z"/><path d="m3101 4733c-10-26-10-27 4-9 8 11 15 23 15 28 0 15-7 8-19-19z"/><path d="m2986 4485c-53-118-96-219-96-224 0-16 24-3 39 22 13 20 13 21-2 8-10-7-17-11-17-7 0 3 40 97 90 208 49 111 88 203 86 205s-46-93-100-212z"/><path d="m3147 4643c-34-56-197-377-197-388 0-3 5-5 10-5 16 0 49 61 42 78-3 10-1 13 6 8 6-3 14-1 18 5 4 8 3 9-4 5s-12-5-12-1c0 10 131 266 157 307 13 22 22 42 20 45-3 2-21-22-40-54z"/><path d="m3331 4254c0-11 3-14 6-6 3 7 2 16-1 19-3 4-6-2-5-13z"/><path d="m3321 4214c0-11 3-14 6-6 3 7 2 16-1 19-3 4-6-2-5-13z"/><path d="m3361 4204c0-11 3-14 6-6 3 7 2 16-1 19-3 4-6-2-5-13z"/><path d="m3351 4164c0-11 3-14 6-6 3 7 2 16-1 19-3 4-6-2-5-13z"/><path d="m3341 4124c0-11 3-14 6-6 3 7 2 16-1 19-3 4-6-2-5-13z"/><path d="m6060 4575c-41-13-101-31-134-40-32-9-56-18-54-20 3-4 150 34 233 60 11 3-1-5-27-19s-49-30-53-36c-8-13 45-13 65 0 11 8 7 9-15 5-20-4-8 6 38 30 37 19 67 37 67 40 0 10-48 2-120-20z"/><path d="m6394 4324 1-212-33-12c-18-6-30-15-27-20 11-18-108-53-182-53-64 0-81 4-148 37-41 20-103 62-138 93l-62 55 66-64c88-85 176-129 267-136 71-5 156 13 217 46 16 9 37 17 45 17 17 0 17 1 2 280l-10 180z"/><path d="m5750 4300c6-11 13-20 16-20 2 0 0 9-6 20s-13 20-16 20c-2 0 0-9 6-20z"/><path d="m6811 4094c0-11 3-14 6-6 3 7 2 16-1 19-3 4-6-2-5-13z"/><path d="m6822 4035c0-16 2-22 5-12 2 9 2 23 0 30-3 6-5-1-5-18z"/><path d="m6290 4022c-36-13-99-30-140-38l-75-14 70 5c97 5 238 51 214 69-2 1-33-9-69-22z"/><path d="m6047 3989c7-7 15-10 18-7s-2 9-12 12c-14 6-15 5-6-5z"/><path d="m6832 3915c-4-158-45-266-133-350-71-68-162-112-266-130-43-7-64-13-47-14 53-2 147 20 202 47 66 32 167 123 192 172 39 77 61 182 57 277l-3 88z"/><path d="m6699 3613c-13-16-12-17 4-4 9 7 17 15 17 17 0 8-8 3-21-13z"/><path d="m6308 3433c7-3 16-2 19 1 4 3-2 6-13 5-11 0-14-3-6-6z"/><path d="m3371 3974c0-11 3-14 6-6 3 7 2 16-1 19-3 4-6-2-5-13z"/><path d="m3362 3930c0-14 2-19 5-12 2 6 2 18 0 25-3 6-5 1-5-13z"/><path d="m3456 3852c-2-4-1-14 5-22 7-12 9-10 9 8 0 23-5 28-14 14z"/><path d="m3472 3750c0-19 2-27 5-17 2 9 2 25 0 35-3 9-5 1-5-18z"/><path d="m3900 3118c-1-61-15-173-25-203-6-17-5-17 10 3 12 17 18 52 22 137 3 63 3 115-1 115-3 0-6-24-6-52z"/><path d="m3525 2919c-26-39-75-103-109-142-33-39-55-68-48-63 26 16 10-14-34-63-25-28-51-50-57-48-7 1-11-5-9-14 1-9-5-23-15-30-15-12-16-12-9 1 4 8-2 4-13-10-42-50-97-103-126-121-16-11-25-19-19-19s23 9 37 20 28 20 32 20 27 21 52 48c50 53 47 39-5-25-19-23-39-41-45-40s-13-7-15-18l-4-20 22 20c12 11 52 58 89 105 36 47 93 119 127 160 83 102 218 310 201 310-2 0-26-32-52-71zm-115-173c0-2-8-10-17-17-16-13-17-12-4 4s21 21 21 13z"/><path d="m3289 2918c-12-23-37-71-56-105-19-35-32-63-30-63 8 0 118 202 113 208-3 2-14-16-27-40z"/><path d="m3350 2920c-6-11-8-20-6-20 3 0 10 9 16 20s8 20 6 20c-3 0-10-9-16-20z"/><path d="m3305 2848c-87-135-179-257-188-251-6 3-7 1-3-5 4-7 3-12-2-12-4 0-29-30-55-67-25-38-64-86-86-108-23-21-41-44-41-49 0-17 69 56 149 159 96 123 270 375 258 375-2 0-17-19-32-42z"/><path d="m3142 2660c-17-27-28-50-23-50 4 0 20 23 35 50 15 28 25 50 23 50s-18-22-35-50z"/><path d="m3314 2658-29-33 33 29c30 28 37 36 29 36-2 0-16-15-33-32z"/><path d="m6642 2370c0-14 2-19 5-12 2 6 2 18 0 25-3 6-5 1-5-13z"/><path d="m6622 2189c-7-79-17-232-22-339-6-107-13-242-18-300-7-102-7-100-12 100l-6 205-2-237c-1-140 2-238 7-238 20 0 29 73 35 265 3 110 13 305 22 433 8 128 14 238 12 244s-9-54-16-133z"/><path d="m6464 2230c0-52 1-74 3-47 2 26 2 68 0 95-2 26-3 4-3-48z"/><path d="m6433 2225c0-27 2-38 4-22 2 15 2 37 0 50-2 12-4 0-4-28z"/><path d="m6568 2055c-2-102 0-185 5-185 4 0 7 83 7 185s-2 185-5 185c-2 0-5-83-7-185z"/><path d="m6754 1875c0-181 2-257 3-168 2 89 2 237 0 330-1 92-3 20-3-162z"/><path d="m6811 2154c0-11 3-14 6-6 3 7 2 16-1 19-3 4-6-2-5-13z"/><path d="m6423 2080c0-30 2-43 4-27 2 15 2 39 0 55-2 15-4 2-4-28z"/><path d="m6814 1970c0-85 2-120 3-77 2 42 2 112 0 155-1 42-3 7-3-78z"/><path d="m6453 2050c0-36 2-50 4-32 2 17 2 47 0 65-2 17-4 3-4-33z"/><path d="m6862 2010c0-19 2-27 5-17 2 9 2 25 0 35-3 9-5 1-5-18z"/><path d="m6413 1950c0-25 2-35 4-22 2 12 2 32 0 45-2 12-4 2-4-23z"/><path d="m6443 1920c0-30 2-43 4-27 2 15 2 39 0 55-2 15-4 2-4-28z"/><path d="m6403 1840c0-25 2-35 4-22 2 12 2 32 0 45-2 12-4 2-4-23z"/><path d="m6433 1815c0-27 2-38 4-22 2 15 2 37 0 50-2 12-4 0-4-28z"/><path d="m6861 1814c0-11 3-14 6-6 3 7 2 16-1 19-3 4-6-2-5-13z"/><path d="m6392 1740c0-19 2-27 5-17 2 9 2 25 0 35-3 9-5 1-5-18z"/><path d="m6416 1689c-4-39-5-73-3-76 3-2 8 28 12 67s5 73 2 76c-2 3-8-27-11-67z"/><path d="m6382 1670c0-14 2-19 5-12 2 6 2 18 0 25-3 6-5 1-5-13z"/><path d="m6371 1594c0-11 3-14 6-6 3 7 2 16-1 19-3 4-6-2-5-13z"/><path d="m6403 1565c0-22 2-30 4-17 2 12 2 30 0 40-3 9-5-1-4-23z"/><path d="m6385 1470c-4-28-5-53-2-56 2-3 7 19 11 47s5 53 3 56c-3 2-8-19-12-47z"/><path d="m4230 2559c0-12 730-723 940-915 227-208 376-331 459-379 33-19-3 17-47 47-162 109-688 592-1184 1088-93 92-168 163-168 159z"/><path d="m4705 2044c421-421 611-598 743-695 23-17 42-27 42-22 0 4-19 21-43 38-114 81-363 310-767 709l-445 439z"/><path d="m4490 2506c0-2 8-10 18-17 15-13 16-12 3 4s-21 21-21 13z"/><path d="m4565 2480c10-11 20-20 23-20s-3 9-13 20-20 20-23 20 3-9 13-20z"/><path d="m4955 2154c456-456 731-715 920-868 81-66 17-4-136 129-143 125-406 375-810 771l-314 307z"/><path d="m4770 2471c0-11 924-927 1010-1002 95-83 160-133 165-127 2 2-33 33-78 68-99 78-300 271-754 726-189 188-343 339-343 335z"/><path d="m4998 2066c221-219 400-401 398-404-5-4-209 177-386 343-47 44-71 65-55 46 106-117 799-723 939-821 81-57 80-44-2 16-155 114-219 172-752 694-234 229-452 440-484 470-33 30 121-125 342-344zm438-438 29-33-32 29c-18 17-33 31-33 33 0 8 8 1 36-29z"/><path d="m4005 2402c118-125 724-728 844-841 72-68 131-117 130-110 0 8-32 41-71 74-40 33-270 256-512 495-243 239-418 410-391 382z"/><path d="m4635 2350c55-55 102-100 105-100 2 0-40 45-95 100s-102 100-105 100c-2 0 40-45 95-100z"/><path d="m4241 2435c8-19 609-603 830-806 121-111 305-266 334-281 26-14 18-6-105 94-181 147-440 389-849 792-117 116-212 207-210 201z"/><path d="m5259 2048c457-457 745-730 730-692-2 5-51 52-109 104-58 51-303 291-546 532-242 241-444 438-449 438s164-172 374-382z"/><path d="m3900 2416c0-2 8-10 18-17 15-13 16-12 3 4s-21 21-21 13z"/><path d="m5202 2167c270-266 685-668 741-717 21-18 40-31 42-28 3 2-25 31-62 64-100 88-324 303-649 626-160 158-295 288-299 288s98-105 227-233z"/><path d="m5503 1957c242-241 442-435 445-433 2 3-87 94-199 203-112 108-312 303-445 432-132 130-43 39 199-202z"/><path d="m5160 2399c0-3 100-108 223-234 264-271 606-599 615-590 3 3-36 45-88 92-52 48-242 233-422 412-181 179-328 323-328 320z"/><path d="m4030 2275c138-144 378-377 515-501 133-120 322-284 350-303 23-15-22 25-280 254-99 88-295 272-435 410-140 137-208 201-150 140z"/><path d="m5320 2325c198-213 662-670 649-640-2 6-161 165-354 355-192 189-325 318-295 285z"/><path d="m3824 2313c33-34 62-60 65-58 2 3 2 6 0 8-2 1-31 27-64 57l-60 55z"/><path d="m5475 2300c44-40 170-164 280-275s209-207 220-214c11-8-105 111-258 263s-288 281-300 288c-12 6 14-22 58-62z"/><path d="m5655 2294c130-131 445-437 445-432 0 4-366 369-394 393-7 6-35 30-62 55-36 33-34 29 11-16z"/><path d="m5417 2288c32-29 164-156 293-284 263-258 328-319 335-312 3 3-52 57-122 120-71 64-158 147-194 184-110 115-350 344-360 344-6 0 16-23 48-52z"/><path d="m3955 2069c376-369 597-571 611-557 2 3-28 32-68 64-101 81-257 225-493 454-110 107-225 217-255 245-30 27 62-65 205-206z"/><path d="m3901 2245c11-30 611-593 770-721 79-64 131-98 65-42-230 194-474 416-705 642-73 72-132 127-130 121z"/><path d="m4835 2160c38-38 72-70 74-70 3 0-26 32-64 70-38 39-72 70-74 70-3 0 26-31 64-70z"/><path d="m4973 1942c197-188 440-403 602-532 103-82 105-83 105-78 0 3-39 36-87 74-172 136-560 481-657 583-17 17-33 31-38 31-4 0 29-35 75-78z"/><path d="m5690 1326c0-2 8-10 18-17 15-13 16-12 3 4s-21 21-21 13z"/><path d="m4565 2040c44-44 82-80 85-80 2 0-31 36-75 80s-82 80-85 80c-2 0 31-36 75-80z"/><path d="m3235 1930c10-11 20-20 23-20s-3 9-13 20-20 20-23 20 3-9 13-20z"/></g></svg>